<svg width="25" height="20" viewBox="0 0 25 20" fill="none" xmlns="http://www.w3.org/2000/svg">
<path d="M22.8027 0.478516H2.19727C0.987207 0.478516 0 1.46465 0 2.67578V17.3242C0 18.5312 0.982813 19.5215 2.19727 19.5215H22.8027C24.0098 19.5215 25 18.5387 25 17.3242V2.67578C25 1.46875 24.0172 0.478516 22.8027 0.478516ZM22.4993 1.94336L12.5466 11.8961L2.50776 1.94336H22.4993ZM1.46484 17.0209V2.97212L8.51948 9.96626L1.46484 17.0209ZM2.50063 18.0566L9.55972 10.9976L12.0332 13.4498C12.3195 13.7337 12.7816 13.7328 13.0667 13.4476L15.4785 11.0358L22.4994 18.0566H2.50063ZM23.5352 17.0208L16.5143 10L23.5352 2.9791V17.0208Z" fill="white"/>
</svg>
