<svg width="101" height="100" viewBox="0 0 101 100" fill="none" xmlns="http://www.w3.org/2000/svg">
<rect x="50.0051" y="3.53553" width="65.7107" height="65.7107" rx="7.5" transform="rotate(45 50.0051 3.53553)" fill="white" fill-opacity="0.2" stroke="white" stroke-width="5"/>
<g clip-path="url(#clip0)">
<path d="M67.4344 32.5733C63.736 28.8749 57.74 28.8749 54.0415 32.5732L46.1265 40.4882C42.301 44.314 42.6551 50.4096 46.1265 53.8811C46.7078 54.4624 47.351 54.9364 48.0302 55.3257L49.4748 53.8811C50.4223 52.9335 50.0888 51.8257 50.0717 51.0263C49.8638 50.8789 49.6615 50.7196 49.4748 50.5329C47.6934 48.7516 47.6132 45.698 49.4748 43.8364C49.7512 43.56 57.2219 36.0894 57.3896 35.9216C59.2362 34.075 62.2395 34.075 64.0861 35.9216C65.9327 37.7682 65.9327 40.7714 64.0861 42.618L58.8544 47.8497C59.0056 48.6868 59.9136 50.6697 59.4466 53.9407C59.4694 53.9183 59.4967 53.9039 59.5194 53.8812L67.4344 45.9662C71.1327 42.2678 71.1327 36.2717 67.4344 32.5733Z" fill="white"/>
<path d="M54.497 45.5106C53.9158 44.9293 53.2725 44.4553 52.5935 44.066L51.1489 45.5106C50.2012 46.4581 50.5348 47.5659 50.5518 48.3652C50.7599 48.5127 50.9622 48.672 51.1489 48.8587C52.9303 50.6401 53.0104 53.6936 51.1489 55.5552C50.8718 55.8322 42.7824 63.9217 42.6205 64.0835C40.7739 65.9301 37.7707 65.9301 35.9241 64.0835C34.0775 62.2369 34.0775 59.2337 35.9241 57.3871L41.7693 51.5418C41.618 50.7048 40.71 48.7219 41.1771 45.4509C41.1543 45.4733 41.1268 45.4879 41.1041 45.5105L32.5758 54.039C28.8776 57.7374 28.8776 63.7334 32.5758 67.4319C36.2742 71.1301 42.2702 71.1301 45.9686 67.4319L54.497 58.9035C58.2516 55.1489 58.0464 49.06 54.497 45.5106Z" fill="white"/>
</g>
<defs>
<clipPath id="clip0">
<rect width="40.4061" height="40.4061" fill="white" transform="translate(29.8021 29.7995)"/>
</clipPath>
</defs>
</svg>
