<svg width="100" height="100" viewBox="0 0 100 100" fill="none" xmlns="http://www.w3.org/2000/svg">
<rect x="50" y="2.82843" width="66.7107" height="66.7107" transform="rotate(45 50 2.82843)" fill="white" fill-opacity="0.2" stroke="white" stroke-width="4"/>
<g clip-path="url(#clip0)">
<path d="M67.4292 32.5733C63.7307 28.8749 57.7347 28.8749 54.0363 32.5732L46.1213 40.4882C42.2957 44.314 42.6499 50.4096 46.1213 53.8811C46.7026 54.4624 47.3458 54.9364 48.0249 55.3257L49.4695 53.8811C50.417 52.9335 50.0835 51.8257 50.0665 51.0263C49.8585 50.8789 49.6562 50.7196 49.4695 50.5329C47.6881 48.7516 47.608 45.698 49.4695 43.8364C49.746 43.56 57.2166 36.0894 57.3844 35.9216C59.231 34.075 62.2342 34.075 64.0808 35.9216C65.9274 37.7682 65.9274 40.7714 64.0808 42.618L58.8491 47.8497C59.0004 48.6868 59.9083 50.6697 59.4413 53.9407C59.4641 53.9183 59.4914 53.9039 59.5141 53.8812L67.4292 45.9662C71.1274 42.2678 71.1274 36.2717 67.4292 32.5733Z" fill="white"/>
<path d="M54.4917 45.5106C53.9105 44.9293 53.2673 44.4553 52.5882 44.066L51.1436 45.5106C50.196 46.4581 50.5295 47.5659 50.5465 48.3652C50.7547 48.5127 50.9569 48.672 51.1436 48.8587C52.9251 50.6401 53.0052 53.6936 51.1436 55.5552C50.8666 55.8322 42.7771 63.9217 42.6153 64.0835C40.7687 65.9301 37.7654 65.9301 35.9188 64.0835C34.0722 62.2369 34.0722 59.2337 35.9188 57.3871L41.7641 51.5419C41.6128 50.7048 40.7047 48.7219 41.1719 45.4509C41.1491 45.4733 41.1216 45.4879 41.0989 45.5105L32.5706 54.039C28.8723 57.7374 28.8723 63.7334 32.5706 67.4319C36.269 71.1301 42.265 71.1301 45.9634 67.4319L54.4917 58.9035C58.2464 55.1489 58.0412 49.06 54.4917 45.5106Z" fill="white"/>
</g>
<defs>
<clipPath id="clip0">
<rect width="40.4061" height="40.4061" fill="white" transform="translate(29.7969 29.7995)"/>
</clipPath>
</defs>
</svg>
