<svg width="14" height="20" viewBox="0 0 14 20" fill="none" xmlns="http://www.w3.org/2000/svg">
<g clip-path="url(#clip0)">
<path d="M6.79998 0C3.12404 0 0.133301 2.99074 0.133301 6.66668C0.133301 7.7702 0.409199 8.86434 0.933691 9.8348L6.43541 19.7852C6.50865 19.9178 6.64822 20 6.79998 20C6.95174 20 7.09131 19.9178 7.16455 19.7852L12.6683 9.83152C13.1908 8.86434 13.4667 7.77016 13.4667 6.66664C13.4667 2.99074 10.4759 0 6.79998 0ZM6.79998 10C4.96201 10 3.46666 8.50465 3.46666 6.66668C3.46666 4.82871 4.96201 3.33336 6.79998 3.33336C8.63795 3.33336 10.1333 4.82871 10.1333 6.66668C10.1333 8.50465 8.63795 10 6.79998 10Z" fill="white"/>
</g>
<defs>
<clipPath id="clip0">
<rect width="13.6" height="20" fill="white"/>
</clipPath>
</defs>
</svg>
