<svg width="101" height="100" viewBox="0 0 101 100" fill="none" xmlns="http://www.w3.org/2000/svg">
<rect x="50.0051" y="3.53553" width="65.7107" height="65.7107" rx="7.5" transform="rotate(45 50.0051 3.53553)" fill="white" fill-opacity="0.2" stroke="white" stroke-width="5"/>
<g clip-path="url(#clip0)">
<path fill-rule="evenodd" clip-rule="evenodd" d="M58.4334 64.5045C56.686 70.9692 53.7317 75.2104 50.3306 75.2543C46.8604 75.299 43.7425 70.9635 41.8383 64.3228C35.1532 66.065 29.8343 65.5889 28.1059 62.5794C27.1463 60.9085 27.419 58.6751 28.6856 56.181C28.4309 55.6926 28.2869 55.1372 28.2869 54.5482C28.2869 52.5956 29.8698 51.0127 31.8224 51.0127C32.0066 51.0127 32.1875 51.0268 32.3641 51.0539C32.7057 50.6784 33.0634 50.3016 33.4367 49.9243C28.6671 45.0119 26.479 40.1953 28.2256 37.2195C29.9473 34.286 35.0949 33.8186 41.5769 35.5006C43.3243 29.0359 46.2786 24.7947 49.6796 24.7508C51.5879 24.7262 53.3896 26.0262 54.9416 28.3056C56.7103 28.5001 58.0864 29.9993 58.0864 31.8198C58.0864 32.5115 57.8877 33.1568 57.5444 33.7017C57.7659 34.3358 57.9754 34.9968 58.172 35.6823C64.857 33.9401 70.176 34.4162 71.9044 37.4257C73.6228 40.4178 71.3894 45.2136 66.5736 50.0808C71.3432 54.9931 73.5313 59.8098 71.7847 62.7856C70.0629 65.7191 64.9154 66.1865 58.4334 64.5045ZM55.6116 59.6493C55.6852 59.2099 55.7537 58.7621 55.8168 58.3064C55.5587 58.4596 55.2983 58.6115 55.0359 58.7622C54.802 58.8966 54.5682 59.0289 54.3344 59.1593C54.7646 59.3314 55.1905 59.4947 55.6116 59.6493ZM35.2149 53.5495C35.5252 53.2099 35.8519 52.8675 36.1943 52.5233C37.4291 53.5946 38.7763 54.6558 40.2216 55.6885C40.399 57.4128 40.6463 59.0694 40.9551 60.6383C39.7508 60.9548 38.6085 61.1886 37.5457 61.3392C35.3907 61.6447 33.7607 61.58 32.6714 61.3179C31.6005 61.0601 31.4023 60.7131 31.391 60.6933L31.3906 60.6925C31.3792 60.6728 31.1793 60.3267 31.4964 59.2718C31.6038 58.9143 31.7605 58.516 31.9715 58.0807C33.855 58.0025 35.3579 56.4509 35.3579 54.5482C35.3579 54.2014 35.308 53.8662 35.2149 53.5495ZM50.9184 29.3226C51.1096 29.5197 51.3072 29.7508 51.5088 30.017C51.1953 30.5449 51.0153 31.1613 51.0153 31.8198C51.0153 33.6186 52.3586 35.1036 54.0967 35.3264C54.2549 35.799 54.4066 36.29 54.5512 36.7982C53.0888 37.3152 51.5848 37.9242 50.0589 38.6223C48.4055 37.8469 46.7773 37.1774 45.1993 36.6175C45.4894 35.5275 45.8143 34.5179 46.1677 33.6004C46.9499 31.5692 47.7999 30.1769 48.5591 29.353C49.3056 28.543 49.7053 28.5388 49.728 28.5386L49.7289 28.5386C49.7517 28.5382 50.1513 28.5321 50.9184 29.3226ZM54.811 63.3875C53.233 62.8276 51.6047 62.1581 49.9514 61.3828C48.4254 62.0809 46.9215 62.6899 45.4591 63.2069C45.7998 64.4046 46.1802 65.5067 46.5917 66.4982C47.4261 68.5085 48.3116 69.8784 49.0919 70.6825C49.859 71.473 50.2586 71.4669 50.2814 71.4665L50.2822 71.4665C50.305 71.4663 50.7046 71.4621 51.4511 70.6521C52.2104 69.8282 53.0603 68.4359 53.8426 66.4047C54.1959 65.4872 54.5208 64.4776 54.811 63.3875ZM45.5896 59.118C45.2545 59.2484 44.922 59.3735 44.5925 59.4934C44.5267 59.1427 44.4641 58.7867 44.4049 58.4256C44.5664 58.5223 44.7287 58.6186 44.8919 58.7144C45.1245 58.8509 45.3571 58.9854 45.5896 59.118ZM43.8399 53.5856C44.787 54.2195 45.778 54.8421 46.8094 55.4474C47.8708 56.0704 48.9272 56.6471 49.9713 57.1774C51.0203 56.657 52.0821 56.0903 53.1494 55.4774C54.2292 54.8572 55.2654 54.218 56.254 53.5663C56.3115 52.3836 56.3341 51.1663 56.3181 49.9212C56.3026 48.7254 56.2523 47.5562 56.1703 46.4195C55.2232 45.7855 54.2323 45.163 53.2009 44.5577C52.1395 43.9347 51.0831 43.358 50.039 42.8277C48.9899 43.3481 47.9281 43.9148 46.8609 44.5277C45.7811 45.1479 44.7449 45.7871 43.7563 46.4388C43.6987 47.6215 43.6762 48.8388 43.6922 50.0839C43.7076 51.2797 43.758 52.4489 43.8399 53.5856ZM54.4207 40.8871C54.6532 41.0197 54.8858 41.1542 55.1184 41.2907C55.2816 41.3865 55.4439 41.4828 55.6054 41.5795C55.5461 41.2184 55.4835 40.8624 55.4178 40.5117C55.0882 40.6316 54.7558 40.7567 54.4207 40.8871ZM60.096 49.3062C60.1001 49.4944 60.1034 49.6831 60.1058 49.8723C60.1097 50.175 60.1115 50.4764 60.1111 50.7765C60.4134 50.5362 60.709 50.2954 60.9976 50.0544C60.7043 49.8048 60.4037 49.5553 60.096 49.3062ZM63.816 47.4818C62.5812 46.4104 61.234 45.3493 59.7886 44.3166C59.6112 42.5922 59.364 40.9357 59.0552 39.3668C60.2595 39.0503 61.4017 38.8165 62.4646 38.6659C64.6196 38.3604 66.2495 38.4251 67.3388 38.6872C68.4098 38.945 68.608 39.292 68.6193 39.3118L68.6197 39.3126C68.6311 39.3323 68.8309 39.6784 68.5139 40.7333C68.1914 41.8063 67.4258 43.2467 66.0759 44.9541C65.4263 45.7758 64.6702 46.623 63.816 47.4818ZM63.7916 52.6535C62.5982 53.6694 61.3017 54.6748 59.9146 55.654C59.7697 57.451 59.5472 59.1754 59.256 60.8042C60.3468 61.0917 61.3849 61.3092 62.357 61.4563C64.509 61.7821 66.1395 61.7329 67.2312 61.481C68.3045 61.2334 68.506 60.8882 68.5175 60.8685L68.518 60.8678C68.5295 60.8482 68.7326 60.504 68.4255 59.4461C68.1132 58.3702 67.3613 56.9226 66.0276 55.2025C65.3857 54.3747 64.6377 53.5204 63.7916 52.6535ZM44.3987 40.3558C44.8197 40.5104 45.2457 40.6737 45.6758 40.8458C45.4421 40.9762 45.2082 41.1085 44.9744 41.2429C44.7119 41.3936 44.4516 41.5455 44.1935 41.6987C44.2565 41.243 44.325 40.7952 44.3987 40.3558ZM40.7542 39.2009C39.6635 38.9134 38.6254 38.6959 37.6533 38.5487C35.5012 38.223 33.8708 38.2722 32.7791 38.5241C31.7057 38.7717 31.5042 39.1169 31.4928 39.1365L31.4923 39.1373C31.4808 39.1569 31.2776 39.5011 31.5847 40.5589C31.8971 41.6349 32.649 43.0825 33.9827 44.8026C34.6246 45.6304 35.3726 46.4847 36.2187 47.3515C37.412 46.3357 38.7086 45.3303 40.0956 44.3511C40.2406 42.5541 40.463 40.8297 40.7542 39.2009ZM39.0127 49.9506C39.3013 49.7097 39.5969 49.4689 39.8991 49.2286C39.8988 49.5287 39.9005 49.8301 39.9044 50.1327C39.9069 50.3219 39.9101 50.5107 39.9142 50.6988C39.6066 50.4497 39.306 50.2002 39.0127 49.9506Z" fill="white"/>
</g>
<defs>
<clipPath id="clip0">
<rect width="45.4569" height="50.5077" fill="white" transform="translate(27.2767 24.7487)"/>
</clipPath>
</defs>
</svg>
