<svg width="100" height="100" viewBox="0 0 100 100" fill="none" xmlns="http://www.w3.org/2000/svg">
<rect x="50" y="2.82843" width="66.7107" height="66.7107" transform="rotate(45 50 2.82843)" fill="white" fill-opacity="0.2" stroke="white" stroke-width="4"/>
<g clip-path="url(#clip0)">
<path fill-rule="evenodd" clip-rule="evenodd" d="M58.4282 64.5045C56.6809 70.9692 53.7266 75.2104 50.3255 75.2543C46.8553 75.299 43.7374 70.9635 41.8331 64.3228C35.1481 66.065 29.8291 65.5889 28.1008 62.5794C27.1411 60.9085 27.4139 58.6751 28.6805 56.181C28.4258 55.6926 28.2817 55.1372 28.2817 54.5482C28.2817 52.5956 29.8646 51.0127 31.8173 51.0127C32.0015 51.0127 32.1824 51.0268 32.359 51.0539C32.7005 50.6784 33.0583 50.3016 33.4315 49.9243C28.6619 45.0119 26.4739 40.1953 28.2205 37.2195C29.9422 34.286 35.0898 33.8186 41.5718 35.5006C43.3191 29.0359 46.2734 24.7947 49.6745 24.7508C51.5828 24.7262 53.3845 26.0262 54.9365 28.3056C56.7052 28.5001 58.0812 29.9993 58.0812 31.8198C58.0812 32.5115 57.8826 33.1568 57.5393 33.7017C57.7608 34.3358 57.9703 34.9968 58.1669 35.6823C64.8519 33.9401 70.1709 34.4162 71.8992 37.4257C73.6177 40.4178 71.3843 45.2136 66.5685 50.0808C71.3381 54.9931 73.5261 59.8098 71.7795 62.7856C70.0578 65.7191 64.9103 66.1865 58.4282 64.5045ZM55.6065 59.6493C55.6801 59.2099 55.7486 58.7621 55.8117 58.3064C55.5535 58.4596 55.2932 58.6115 55.0308 58.7622C54.7969 58.8966 54.5631 59.0289 54.3293 59.1593C54.7595 59.3314 55.1854 59.4947 55.6065 59.6493ZM35.2098 53.5495C35.5201 53.2099 35.8467 52.8675 36.1891 52.5233C37.4239 53.5946 38.7712 54.6558 40.2165 55.6885C40.3939 57.4128 40.6411 59.0694 40.95 60.6383C39.7456 60.9548 38.6034 61.1886 37.5406 61.3392C35.3855 61.6447 33.7556 61.58 32.6663 61.3179C31.5954 61.0601 31.3972 60.7131 31.3859 60.6933L31.3854 60.6925C31.374 60.6728 31.1742 60.3267 31.4913 59.2718C31.5987 58.9143 31.7553 58.516 31.9664 58.0807C33.8498 58.0025 35.3528 56.4509 35.3528 54.5482C35.3528 54.2014 35.3029 53.8662 35.2098 53.5495ZM50.9133 29.3226C51.1045 29.5197 51.3021 29.7508 51.5037 30.017C51.1902 30.5449 51.0102 31.1613 51.0102 31.8198C51.0102 33.6186 52.3534 35.1036 54.0916 35.3264C54.2498 35.799 54.4015 36.29 54.5461 36.7982C53.0836 37.3152 51.5797 37.9242 50.0537 38.6223C48.4004 37.8469 46.7722 37.1774 45.1941 36.6175C45.4843 35.5275 45.8092 34.5179 46.1626 33.6004C46.9448 31.5692 47.7947 30.1769 48.554 29.353C49.3005 28.543 49.7001 28.5388 49.7229 28.5386L49.7238 28.5386C49.7465 28.5382 50.1462 28.5321 50.9133 29.3226ZM54.8059 63.3875C53.2278 62.8276 51.5996 62.1581 49.9463 61.3828C48.4203 62.0809 46.9164 62.6899 45.4539 63.2069C45.7947 64.4046 46.1751 65.5067 46.5866 66.4982C47.4209 68.5085 48.3065 69.8784 49.0867 70.6825C49.8539 71.473 50.2535 71.4669 50.2762 71.4665L50.2771 71.4665C50.2999 71.4663 50.6995 71.4621 51.446 70.6521C52.2053 69.8282 53.0552 68.4359 53.8374 66.4047C54.1908 65.4872 54.5157 64.4776 54.8059 63.3875ZM45.5845 59.118C45.2494 59.2484 44.9169 59.3735 44.5873 59.4934C44.5216 59.1427 44.459 58.7867 44.3997 58.4256C44.5612 58.5223 44.7236 58.6186 44.8868 58.7144C45.1194 58.8509 45.3519 58.9854 45.5845 59.118ZM43.8348 53.5856C44.7819 54.2195 45.7729 54.8421 46.8042 55.4474C47.8656 56.0704 48.922 56.6471 49.9661 57.1774C51.0152 56.657 52.077 56.0903 53.1442 55.4774C54.2241 54.8572 55.2602 54.218 56.2488 53.5663C56.3064 52.3836 56.329 51.1663 56.3129 49.9212C56.2975 48.7254 56.2472 47.5562 56.1652 46.4195C55.2181 45.7855 54.2272 45.163 53.1958 44.5577C52.1344 43.9347 51.078 43.358 50.0339 42.8277C48.9848 43.3481 47.923 43.9148 46.8558 44.5277C45.776 45.1479 44.7398 45.7871 43.7512 46.4388C43.6936 47.6215 43.671 48.8388 43.6871 50.0839C43.7025 51.2797 43.7528 52.4489 43.8348 53.5856ZM54.4156 40.8871C54.6481 41.0197 54.8807 41.1542 55.1133 41.2907C55.2764 41.3865 55.4388 41.4828 55.6003 41.5795C55.541 41.2184 55.4784 40.8624 55.4127 40.5117C55.0831 40.6316 54.7506 40.7567 54.4156 40.8871ZM60.0909 49.3062C60.095 49.4944 60.0982 49.6831 60.1007 49.8723C60.1046 50.175 60.1063 50.4764 60.106 50.7765C60.4083 50.5362 60.7038 50.2954 60.9925 50.0544C60.6991 49.8048 60.3986 49.5553 60.0909 49.3062ZM63.8109 47.4818C62.5761 46.4104 61.2289 45.3493 59.7835 44.3166C59.6061 42.5922 59.3589 40.9357 59.05 39.3668C60.2544 39.0503 61.3966 38.8165 62.4594 38.6659C64.6145 38.3604 66.2444 38.4251 67.3337 38.6872C68.4046 38.945 68.6028 39.292 68.6141 39.3118L68.6146 39.3126C68.626 39.3323 68.8258 39.6784 68.5087 40.7333C68.1862 41.8063 67.4207 43.2467 66.0708 44.9541C65.4212 45.7758 64.6651 46.623 63.8109 47.4818ZM63.7865 52.6535C62.5931 53.6694 61.2966 54.6748 59.9095 55.654C59.7646 57.451 59.5421 59.1754 59.2509 60.8042C60.3416 61.0917 61.3797 61.3092 62.3519 61.4563C64.5039 61.7821 66.1344 61.7329 67.2261 61.481C68.2994 61.2334 68.5009 60.8882 68.5124 60.8685L68.5128 60.8678C68.5244 60.8482 68.7275 60.504 68.4204 59.4461C68.1081 58.3702 67.3561 56.9226 66.0224 55.2025C65.3806 54.3747 64.6325 53.5204 63.7865 52.6535ZM44.3935 40.3558C44.8146 40.5104 45.2405 40.6737 45.6707 40.8458C45.437 40.9762 45.2031 41.1085 44.9692 41.2429C44.7068 41.3936 44.4465 41.5455 44.1883 41.6987C44.2514 41.243 44.3199 40.7952 44.3935 40.3558ZM40.7491 39.2009C39.6584 38.9134 38.6203 38.6959 37.6482 38.5487C35.4961 38.223 33.8656 38.2722 32.7739 38.5241C31.7006 38.7717 31.4991 39.1169 31.4876 39.1365L31.4872 39.1373C31.4756 39.1569 31.2725 39.5011 31.5796 40.5589C31.892 41.6349 32.6439 43.0825 33.9776 44.8026C34.6195 45.6304 35.3675 46.4847 36.2135 47.3515C37.4069 46.3357 38.7035 45.3303 40.0905 44.3511C40.2354 42.5541 40.4579 40.8297 40.7491 39.2009ZM39.0075 49.9506C39.2962 49.7097 39.5917 49.4689 39.894 49.2286C39.8937 49.5287 39.8954 49.8301 39.8993 50.1327C39.9018 50.3219 39.905 50.5107 39.9091 50.6988C39.6015 50.4497 39.3009 50.2002 39.0075 49.9506Z" fill="white"/>
</g>
<defs>
<clipPath id="clip0">
<rect width="45.4569" height="50.5077" fill="white" transform="translate(27.2715 24.7487)"/>
</clipPath>
</defs>
</svg>
