<svg width="100" height="100" viewBox="0 0 100 100" fill="none" xmlns="http://www.w3.org/2000/svg">
<rect x="50" y="2.82843" width="66.7107" height="66.7107" transform="rotate(45 50 2.82843)" fill="white" fill-opacity="0.2" stroke="white" stroke-width="4"/>
<g clip-path="url(#clip0)">
<path d="M41.5205 53.8199C43.4216 54.1054 45.7422 53.6681 48.277 53.5165C48.75 53.6235 49.223 53.695 49.7139 53.695C50.2137 53.695 50.7046 53.6235 51.1955 53.5075C57.7913 53.8289 62.9323 55.6942 62.9323 42.2706C62.9323 33.1579 57.0148 25.7589 49.7139 25.7589C42.4131 25.7589 36.4956 33.1579 36.4956 42.2706C36.4956 49.5983 37.8969 52.4454 40.1728 53.4361C40.5923 53.6325 41.0475 53.7485 41.5205 53.8199ZM39.4142 37.1207C40.7976 39.0397 44.3855 38.6291 47.4826 36.2014C48.268 35.5856 48.9553 34.8805 49.5087 34.1665C49.5801 34.1754 49.6515 34.1843 49.7229 34.2022C50.0263 34.2557 50.303 34.3628 50.6154 34.461C50.8922 34.5949 51.1955 34.702 51.4633 34.8716C51.7401 35.0144 51.9899 35.2107 52.2398 35.3803C52.4629 35.5767 52.7128 35.7641 52.9003 35.9783C53.0965 36.1747 53.284 36.3889 53.4268 36.5942C53.5874 36.7905 53.7035 36.9958 53.8195 37.1743C53.9354 37.3528 54.0336 37.5135 54.0872 37.6563C54.2211 37.9329 54.3013 38.0936 54.3013 38.0936C54.3013 38.0936 54.2746 37.924 54.2211 37.6116C54.2033 37.451 54.1586 37.2725 54.1051 37.0583C54.0514 36.8441 53.989 36.5942 53.8819 36.3443C53.7927 36.0854 53.6677 35.8177 53.5249 35.5321C53.3911 35.2464 53.1947 34.9698 53.0072 34.6663C52.784 34.3896 52.5788 34.0862 52.311 33.8184C52.0611 33.5328 51.7576 33.2918 51.4631 33.033C51.1864 32.8366 50.892 32.6224 50.5796 32.4528C50.7135 32.1761 50.8205 31.8905 50.9097 31.6228C52.0165 32.1226 53.1501 32.7563 54.0514 33.6577C57.3628 36.969 56.0596 40.8158 58.6123 38.2721C59.014 37.8705 59.3441 37.451 59.603 37.0315C59.6923 37.0315 59.7815 37.0226 59.8529 37.0404C60.201 37.1297 60.4242 37.3974 60.5491 37.6116C60.8972 38.1918 60.9776 39.0308 60.7633 39.8697C60.442 41.1193 59.6209 41.8601 58.9604 41.9404L58.4249 42.0118L58.2822 42.5384C57.0148 47.1349 53.5964 52.0259 49.7318 52.0259C45.8671 52.0259 42.4577 47.1349 41.1814 42.5384L41.0386 42.0118L40.5031 41.9404C39.8515 41.8511 39.0215 41.1103 38.7001 39.8697C38.4859 39.0308 38.5663 38.1918 38.9144 37.6116C38.9947 37.451 39.1732 37.2457 39.4142 37.1207Z" fill="white"/>
<path d="M59.6478 55.0248C58.6125 56.792 57.4076 58.2826 55.8189 59.1036C52.5344 60.7816 50.089 62.156 50.089 62.156L50.0799 62.1471V62.1203L50.0532 62.1381L50.0264 62.1203V62.1471L50.0175 62.156C50.0175 62.156 47.5809 60.7994 44.2874 59.1036C42.6988 58.2826 41.5028 56.792 40.4585 55.0248C35.5942 57.0062 32.2026 61.5402 32.2026 65.5119C32.2026 69.6891 32.2026 73.741 32.2026 73.741H50.0175H50.0889H67.9037C67.9037 73.741 67.9037 69.6891 67.9037 65.5119C67.9037 61.5492 64.5032 57.0063 59.6478 55.0248Z" fill="white"/>
</g>
<defs>
<clipPath id="clip0">
<rect width="36.4665" height="47.9822" fill="white" transform="translate(31.8198 25.7589)"/>
</clipPath>
</defs>
</svg>
