<svg width="100" height="100" viewBox="0 0 100 100" fill="none" xmlns="http://www.w3.org/2000/svg">
<rect x="50" y="3.53553" width="65.7107" height="65.7107" rx="7.5" transform="rotate(45 50 3.53553)" fill="white" fill-opacity="0.2" stroke="white" stroke-width="5"/>
<g clip-path="url(#clip0)">
<path d="M41.5204 53.8199C43.4215 54.1055 45.7421 53.6681 48.2768 53.5165C48.7499 53.6235 49.2229 53.695 49.7138 53.695C50.2136 53.695 50.7045 53.6235 51.1954 53.5076C57.7912 53.8289 62.9321 55.6942 62.9321 42.2706C62.9321 33.1579 57.0147 25.7589 49.7138 25.7589C42.4129 25.7589 36.4955 33.1579 36.4955 42.2706C36.4955 49.5983 37.8968 52.4455 40.1727 53.4362C40.5922 53.6325 41.0474 53.7485 41.5204 53.8199ZM39.414 37.1208C40.7975 39.0397 44.3854 38.6291 47.4825 36.2015C48.2679 35.5856 48.9552 34.8805 49.5085 34.1665C49.5799 34.1754 49.6513 34.1844 49.7227 34.2022C50.0262 34.2558 50.3029 34.3629 50.6153 34.461C50.892 34.5949 51.1954 34.702 51.4632 34.8716C51.7399 35.0144 51.9898 35.2108 52.2397 35.3803C52.4628 35.5767 52.7127 35.7641 52.9001 35.9783C53.0964 36.1747 53.2839 36.3889 53.4266 36.5942C53.5873 36.7905 53.7034 36.9958 53.8193 37.1743C53.9353 37.3528 54.0335 37.5135 54.0871 37.6563C54.221 37.933 54.3012 38.0936 54.3012 38.0936C54.3012 38.0936 54.2744 37.924 54.221 37.6117C54.2031 37.451 54.1585 37.2725 54.105 37.0583C54.0513 36.8441 53.9888 36.5942 53.8818 36.3443C53.7926 36.0854 53.6676 35.8177 53.5248 35.5321C53.3909 35.2465 53.1946 34.9698 53.0071 34.6663C52.7839 34.3896 52.5786 34.0862 52.3109 33.8184C52.061 33.5328 51.7575 33.2918 51.463 33.033C51.1863 32.8366 50.8919 32.6224 50.5795 32.4528C50.7133 32.1762 50.8204 31.8906 50.9096 31.6228C52.0164 32.1226 53.1499 32.7563 54.0513 33.6578C57.3627 36.969 56.0595 40.8158 58.6122 38.2721C59.0139 37.8705 59.344 37.451 59.6029 37.0315C59.6922 37.0315 59.7814 37.0226 59.8528 37.0404C60.2009 37.1297 60.424 37.3974 60.549 37.6117C60.8971 38.1918 60.9775 39.0308 60.7632 39.8697C60.4419 41.1193 59.6208 41.8601 58.9603 41.9404L58.4248 42.0118L58.2821 42.5384C57.0147 47.1349 53.5963 52.026 49.7317 52.026C45.867 52.026 42.4576 47.1349 41.1812 42.5384L41.0384 42.0118L40.5029 41.9404C39.8514 41.8512 39.0213 41.1104 38.7 39.8697C38.4858 39.0308 38.5661 38.1918 38.9142 37.6117C38.9946 37.451 39.1731 37.2457 39.414 37.1208Z" fill="white"/>
<path d="M59.6477 55.0249C58.6124 56.792 57.4075 58.2826 55.8188 59.1036C52.5343 60.7816 50.0888 62.1561 50.0888 62.1561L50.0798 62.1471V62.1203L50.053 62.1381L50.0263 62.1203V62.1471L50.0173 62.1561C50.0173 62.1561 47.5808 60.7994 44.2873 59.1036C42.6986 58.2826 41.5026 56.792 40.4584 55.0249C35.5941 57.0062 32.2025 61.5402 32.2025 65.512C32.2025 69.6891 32.2025 73.7411 32.2025 73.7411H50.0173H50.0888H67.9036C67.9036 73.7411 67.9036 69.6891 67.9036 65.512C67.9036 61.5492 64.5031 57.0063 59.6477 55.0249Z" fill="white"/>
</g>
<defs>
<clipPath id="clip0">
<rect width="36.4665" height="47.9822" fill="white" transform="translate(31.8198 25.7589)"/>
</clipPath>
</defs>
</svg>
